<?xml version="1.0" standalone="no"?><!DOCTYPE svg PUBLIC "-//W3C//DTD SVG 1.1//EN" "http://www.w3.org/Graphics/SVG/1.1/DTD/svg11.dtd"><svg class="icon" width="200px" height="200.00px" viewBox="0 0 1024 1024" version="1.1" xmlns="http://www.w3.org/2000/svg"><path d="M54.912 960c124.928 124.992 428.864 23.68 678.784-226.304C983.68 483.84 1084.992 179.84 960 54.912 835.008-70.08 531.136 31.232 281.152 281.152 31.232 531.2-70.08 835.008 54.912 960z m63.36-63.36c-78.08-78.08 6.848-332.672 226.24-552.128C563.968 125.12 818.624 40.192 896.64 118.272c78.08 78.08-6.848 332.672-226.24 552.128-219.52 219.392-474.112 304.256-552.128 226.24z" fill="#727484" /><path d="M960 960c124.992-124.992 23.68-428.864-226.304-678.848C483.84 31.232 179.84-70.08 54.912 54.912-70.08 179.84 31.232 483.776 281.152 733.696 531.2 983.68 835.008 1084.992 960 960z m-63.36-63.36c-78.08 78.08-332.672-6.848-552.128-226.24C125.12 450.88 40.192 196.288 118.272 118.272c78.08-78.08 332.672 6.848 552.128 226.24 219.392 219.456 304.256 474.112 226.24 552.128z" fill="#727484" /><path d="M512 512m-128 0a128 128 0 1 0 256 0 128 128 0 1 0-256 0Z" fill="#68A2FD" /></svg>